<svg xmlns="http://www.w3.org/2000/svg" xmlns:xlink="http://www.w3.org/1999/xlink" width="499.911" height="199.016" viewBox="0 0 499.911 199.016"><defs><linearGradient id="a" x1="-0.152" y1="0.5" x2="1.001" y2="0.5" gradientUnits="objectBoundingBox"><stop offset="0" stop-color="#1077ce"/><stop offset="1" stop-color="#1077ce"/></linearGradient><linearGradient id="b" x1="0.5" y1="1" x2="0.5" gradientUnits="objectBoundingBox"><stop offset="0" stop-color="#243852"/><stop offset="0.37" stop-color="#243a55"/><stop offset="0.59" stop-color="#22415d"/><stop offset="0.77" stop-color="#204c6b"/><stop offset="0.93" stop-color="#1d5c7f"/><stop offset="1" stop-color="#1b658a"/></linearGradient><linearGradient id="c" x1="0.001" y1="0.499" x2="1.001" y2="0.499" xlink:href="#a"/><linearGradient id="d" x1="0.013" y1="1.131" x2="0.976" y2="-0.153" gradientUnits="objectBoundingBox"><stop offset="0" stop-color="#1092ce"/><stop offset="0.38" stop-color="#108ece"/><stop offset="0.78" stop-color="#1081ce"/><stop offset="1" stop-color="#1077ce"/></linearGradient><linearGradient id="e" x1="0" y1="0.5" x2="0.999" y2="0.5" xlink:href="#a"/><linearGradient id="f" x1="0" y1="0.501" x2="1" y2="0.501" xlink:href="#a"/></defs><g transform="translate(0.003 -0.005)"><g transform="translate(-0.003 0.005)"><path d="M503.222,250.2c0,3.028-109.446,5.479-244.46,5.479S14.31,253.229,14.31,250.2s109.446-5.472,244.452-5.472S503.222,247.181,503.222,250.2Z" transform="translate(-3.311 -56.665)" fill="#3c3c3b"/><path d="M324.659,6.369c.423-5.1,32.537-6.617,71.73-3.381s72.183,9.714,70.17,15.1c-1.783,4.788-7.416,11.051-41.167,8.707C386.145,24.067,324.237,11.464,324.659,6.369Z" transform="translate(-75.164 -0.301)" fill="#f6f6f6"/><path d="M59.574,73.544,76,69.071a9.775,9.775,0,0,1,8.223,1.4l7.254,5.149a4.611,4.611,0,0,1,1.937,3.75v4.165a3.435,3.435,0,0,1-3.7,3.427L60.2,84.656A3.427,3.427,0,0,1,57,81.229V76.818a3.443,3.443,0,0,1,2.574-3.274Z" transform="translate(-13.195 -15.912)" fill="#106eaf"/><path d="M40.429,155.9c-12.5,0-22.639,16.906-22.639,37.786s10.152,37.786,22.639,37.786H65.313V155.9Z" transform="translate(-4.117 -36.098)" fill="#2e2e2d"/><path d="M470.239,155.9c-12.5,0-22.639,16.906-22.639,37.786s10.136,37.786,22.639,37.786h24.883V155.9Z" transform="translate(-103.628 -36.098)" fill="#2e2e2d"/><path d="M246.967,155.9c-12.5,0-22.647,16.906-22.647,37.786s10.144,37.786,22.647,37.786H271.85V155.9Z" transform="translate(-51.933 -36.098)" fill="#2e2e2d"/><ellipse cx="22.639" cy="37.786" rx="22.639" ry="37.786" transform="translate(38.556 119.802)" fill="#3c3c3b"/><path d="M433.854,145.289c-1.537-33.436-16.23-49.06-22.109-76.579C407.964,54,400.863,40.484,392.764,28.635c-9.621-14.032-26.758-19.6-44.379-22.017C305.834.77,257.52-2.412,187.227,2.23c-10.943.722-49.252,6.409-67.165,18.32-14.071,9.368-42.474,34.013-56.721,48.16C50.815,71.385,35.13,77.379,16.518,97.6,3.369,111.876,5.882,139.218,5.882,152.044c0,18.113,13.195,24.391,28.933,24.391H410.454C428.805,176.436,434.738,164.639,433.854,145.289Z" transform="translate(-1.315 -0.005)" fill="url(#a)"/><path d="M148.786,24.51C126.016,37.766,99.5,63.825,91.15,73.938H235.093c10.628-15.062,31.508-37.6,45.624-49.428Z" transform="translate(-21.101 -5.678)" fill="#264057"/><path d="M323.61,37.3c-13.441,15.054-25.444,32.722-30.47,42.6,0,0,104.789-6.755,137.258-10.052,16.292-1.652,18.09-9.629,15.416-17.567-4.388-12.987-10.459-26.628-20.749-29.271-11-2.82-42.458-6.033-60.771-4.672C351.905,19.247,335.375,24.15,323.61,37.3Z" transform="translate(-67.867 -4.174)" fill="url(#b)"/><path d="M160.134,214.848H15.031c-3.842,0-6.263-2.528-7.815-6.079C4.825,203.29-.116,191.34,0,185.646c.092-4.473,2.1-19.5,4.765-19.727,2.152-.184,26.021,9.122,39.039,9.122h80.244c11.8,0,47.945-12.526,50.543-8.015,1.806,3.135-7.754,11.112-7.623,18.613.115,6.194.768,20.534.768,20.534a7.685,7.685,0,0,1-7.6,8.676Z" transform="translate(0.003 -38.417)" fill="#dadada"/><path d="M149.1,213.593H21.09l6.617-15.907a7.815,7.815,0,0,1,7.224-4.826h94.4a7.8,7.8,0,0,1,6.209,3.074Z" transform="translate(-4.881 -44.655)" fill="#3c3c3b"/><path d="M121.522,162.036H76.22l5.986-23.216h45.3Z" transform="translate(-17.645 -32.144)" fill="#3c3c3b"/><path d="M171.7,146.73,135.17,160.447l5.986-23.216,34.351-5.272Z" transform="translate(-31.293 -30.556)" fill="#3c3c3b"/><path d="M37.89,146.73l29.456,13.717,5.986-23.216L41.7,131.96Z" transform="translate(-8.77 -30.556)" fill="#3c3c3b"/><path d="M35.642,125.179,31.8,139.957l-19.842-9.222c-1.214-6.916,2.4-11.865,5.149-15.024,2.39-2.736,14.294-10.467,22.785-13.172l-.945.722c-3.143,2.405-5.08,3.842-5.618,4.227-1.537,1.168-3.543,3.289-5.518,7.447Z" transform="translate(-2.71 -23.744)" fill="url(#c)"/><path d="M348,73.544l-16.422-4.473a9.79,9.79,0,0,0-8.23,1.4L316.1,75.619a4.611,4.611,0,0,0-1.937,3.75v4.165a3.435,3.435,0,0,0,3.719,3.443L347.4,84.672a3.427,3.427,0,0,0,3.143-3.443V76.818A3.443,3.443,0,0,0,348,73.544Z" transform="translate(-72.733 -15.912)" fill="#dadada"/><path d="M541.919,104.912c2.213,6.463,5.08,16.553,3.074,16.553a18.1,18.1,0,0,1-6.778-1.683,4.234,4.234,0,0,1-2.036-3.266c-.938-6.2-3.074-18.566-3.489-21.517-.461-3.274-1.168-8.369.392-8.369C534.949,86.607,539.775,98.657,541.919,104.912Z" transform="translate(-123.197 -20.061)" fill="#f0657e"/><path d="M306.213,210.823a68.349,68.349,0,0,0,2.567-18.843c0-24-11.658-43.45-26.036-43.45S256.7,167.98,256.7,191.98a68.055,68.055,0,0,0,2.574,18.843Z" transform="translate(-59.43 -34.392)" fill="#2e2e2d"/><ellipse cx="22.639" cy="37.786" rx="22.639" ry="37.786" transform="translate(197.278 119.802)" fill="#3c3c3b"/><ellipse cx="14.716" cy="24.56" rx="14.716" ry="24.56" transform="translate(205.201 133.027)" fill="#b2b2b2"/><path d="M521.9,210.823c2.075,0,7.815-.768,8.092-1.852a69.074,69.074,0,0,0,2.067-16.991c0-24-11.658-43.45-26.036-43.45S480,167.98,480,191.98a68.056,68.056,0,0,0,2.574,18.843Z" transform="translate(-111.129 -34.392)" fill="#2e2e2d"/><ellipse cx="22.639" cy="37.786" rx="22.639" ry="37.786" transform="translate(368.855 119.802)" fill="#3c3c3b"/><ellipse cx="14.716" cy="24.56" rx="14.716" ry="24.56" transform="translate(376.778 133.027)" fill="#b2b2b2"/><path d="M152.689,31.19c-20.5,11.934-37.655,28-45.179,37.094,0,0,93.278-3.074,123.679-13.341C246.12,49.887,243.907,39,242.216,31.19Z" transform="translate(-24.889 -7.225)" fill="url(#d)"/><path d="M227.825,122.951,182.7,139.9l3.842-14.77,15.731-12.334a30.047,30.047,0,0,1,14.04-6.309l27.934-4.011c2.39-.346,3.3,2.444,1.537,4.657l-4.8,6.009a31.177,31.177,0,0,1-13.164,9.813Z" transform="translate(-42.297 -23.721)" fill="url(#e)"/><path d="M218.742,128.632,182.7,142.165l3.074-11.8,12.526-9.86a24.1,24.1,0,0,1,11.212-5.041l22.286-3.2c1.906-.269,2.628,1.952,1.214,3.727l-3.842,4.8a24.952,24.952,0,0,1-10.428,7.846Z" transform="translate(-42.297 -25.99)" fill="#fff"/><path d="M35.936,130.371l-3.028,11.8-15.554-7.008c-3.8-9.544,4.188-19.489,11.135-22.908.9.845-3.074,2.459-.43,6.755Z" transform="translate(-3.788 -25.992)" fill="#fff"/><ellipse cx="12.58" cy="20.995" rx="12.58" ry="20.995" transform="translate(378.907 136.593)" fill="#6b6a6a"/><ellipse cx="12.58" cy="20.995" rx="12.58" ry="20.995" transform="translate(207.329 136.593)" fill="#6b6a6a"/><path d="M511.824,198.953c0,9.752-3.973,17.952-9.375,20.311-5.379-2.344-9.4-10.559-9.4-20.311s4-17.959,9.4-20.3C507.851,181.009,511.824,189.209,511.824,198.953Z" transform="translate(-114.151 -41.365)" fill="#878787"/><path d="M288.564,198.953c0,9.752-3.981,17.952-9.383,20.311-5.379-2.344-9.391-10.559-9.391-20.311s4-17.959,9.383-20.3C284.552,181.009,288.564,189.209,288.564,198.953Z" transform="translate(-62.461 -41.365)" fill="#878787"/><ellipse cx="6.294" cy="10.497" rx="6.294" ry="10.497" transform="translate(378.799 147.09)" fill="#6b6a6a"/><ellipse cx="6.294" cy="10.497" rx="6.294" ry="10.497" transform="translate(207.222 147.09)" fill="#6b6a6a"/><path d="M350.532,76.811h0a3.443,3.443,0,0,0-2.536-3.3l-16.422-4.473a9.8,9.8,0,0,0-8.23,1.429L316.1,75.612a4.611,4.611,0,0,0-1.937,3.75h0a.768.768,0,0,0,.815.768l34.8-2.536A.815.815,0,0,0,350.532,76.811Z" transform="translate(-72.734 -15.906)" fill="url(#f)"/><path d="M203.095,206.53H177.42l7.869,10.228h17.36a4.542,4.542,0,0,0,4.5-5.118l-.223-1.744A3.842,3.842,0,0,0,203.095,206.53Z" transform="translate(-41.075 -47.82)" fill="#ffd150"/><path d="M21.285,206.53,17,216.758H7.4c-1.176-2.751-2.7-6.486-3.988-10.228Z" transform="translate(-0.788 -47.82)" fill="#ffd150"/><rect width="19.565" height="5.848" rx="2.924" transform="translate(294.797 80.974) rotate(-3.7)" fill="#fff"/><rect width="19.565" height="5.848" rx="2.924" transform="translate(354.901 75.967) rotate(-5.64)" fill="#fff"/><path d="M522.358,101.222c.484,4.872-2.213,9.122-6.025,9.5s-7.293-3.266-7.769-8.13,2.213-9.122,6.025-9.5S521.881,96.358,522.358,101.222Z" transform="translate(-117.73 -21.55)" fill="#fff" opacity="0.43"/><path d="M435.338,31.19c3.919,0,8.246,1.3,9.737,4.173,2.1,4.058,3.735,7.254,4.519,11.227.622,3.189-2.305,5.418-9.852,5.418-19.98,0-42.013-.592-56.045-2.451-4.442-.592-12.034-2.482-15.416-5.041-2.628-2-2.528-6.378-1.844-8.914.73-2.7,1.729-4.411,9.859-4.411Z" transform="translate(-84.741 -7.225)" fill="#106eaf"/></g></g></svg>