<svg xmlns="http://www.w3.org/2000/svg" width="27" height="27" viewBox="0 0 27 27"><g transform="translate(-1549 -399)"><path d="M4.341-19.229A13.057,13.057,0,0,1,13.922-23.2a13.013,13.013,0,0,1,9.553,3.947A13.013,13.013,0,0,1,27.422-9.7,13.013,13.013,0,0,1,23.475-.15,13.013,13.013,0,0,1,13.922,3.8,13.013,13.013,0,0,1,4.368-.15,13.013,13.013,0,0,1,.422-9.7,12.968,12.968,0,0,1,4.341-19.229ZM21.761-8.179v-3.048a.577.577,0,0,0-.653-.653H16.1v-5.008a.577.577,0,0,0-.653-.653H12.4a.577.577,0,0,0-.653.653v5.008H6.736a.577.577,0,0,0-.653.653v3.048a.577.577,0,0,0,.653.653h5.008v5.008a.577.577,0,0,0,.653.653h3.048a.577.577,0,0,0,.653-.653V-7.526h5.008A.577.577,0,0,0,21.761-8.179Z" transform="translate(1548.578 422.203)" fill="#fff"/><rect width="27" height="27" transform="translate(1549 399)" fill="none"/></g></svg>