<svg xmlns="http://www.w3.org/2000/svg" width="27" height="27" viewBox="0 0 27 27"><g transform="translate(-1598 -399)"><path d="M26.631-.264a1.221,1.221,0,0,1,.369.9,1.221,1.221,0,0,1-.369.9L25.154,3.006a1.273,1.273,0,0,1-1.793,0L18.088-2.268a1.221,1.221,0,0,1-.369-.9v-.844a10.627,10.627,0,0,1-6.75,2.32A10.566,10.566,0,0,1,3.217-4.9,10.566,10.566,0,0,1,0-12.656a10.566,10.566,0,0,1,3.217-7.752,10.566,10.566,0,0,1,7.752-3.217,10.566,10.566,0,0,1,7.752,3.217,10.566,10.566,0,0,1,3.217,7.752,10.627,10.627,0,0,1-2.32,6.75h.844a1.221,1.221,0,0,1,.9.369ZM6.17-7.857a6.636,6.636,0,0,0,4.8,1.951,6.5,6.5,0,0,0,4.772-1.978,6.5,6.5,0,0,0,1.978-4.772,6.5,6.5,0,0,0-1.978-4.772,6.5,6.5,0,0,0-4.772-1.978A6.5,6.5,0,0,0,6.2-17.429a6.5,6.5,0,0,0-1.978,4.772A6.636,6.636,0,0,0,6.17-7.857Z" transform="translate(1598 422.625)" fill="#fff"/><rect width="27" height="27" transform="translate(1598 399)" fill="none"/></g></svg>