<svg xmlns="http://www.w3.org/2000/svg" width="27" height="27" viewBox="0 0 27 27"><g transform="translate(-1514 -399)"><path d="M7.594-5.062.422-12.234a1.221,1.221,0,0,1-.369-.9,1.221,1.221,0,0,1,.369-.9l1.213-1.16a1.221,1.221,0,0,1,.9-.369,1.221,1.221,0,0,1,.9.369L8.49-10.125l5.063-5.062a1.221,1.221,0,0,1,.9-.369,1.221,1.221,0,0,1,.9.369l1.213,1.16a1.221,1.221,0,0,1,.369.9,1.221,1.221,0,0,1-.369.9L9.387-5.062a1.221,1.221,0,0,1-.9.369A1.221,1.221,0,0,1,7.594-5.062Z" transform="translate(1518.947 422.557)" fill="#1077ce"/><rect width="27" height="27" transform="translate(1514 399)" fill="none"/></g></svg>